# xmcd
#
# Track frame offsets:
#	150
#	12171
#	30211
#	47798
#	62511
#	78051
#	98096
#	120042
#	133595
#	162989
#	178167
#	191000
#	202188
#	213274
#	227437
#
# Disc length: 3229 seconds
#
# Revision: 1
# Processed by: cddbd v1.5.2PL0 Copyright (c) Steve Scherf et al.
# Submitted via: EasyCDDAExtractor 16.0.6.1
#
DISCID=b50c9b0f
DTITLE=Τα καλύτερα ελληνικά τραγούδια 1966
DYEAR=1966
DGENRE=Λαϊκή
TTITLE0=Μπιθικώτσης Γρηγόρης                   - Πάει ο καιρός [Μ. Χατζιδάκι-Ν
TTITLE0=Γκάτσου]
TTITLE1=Φαραντούρη Μαρία - Ο δραπέτης [Μ. Θεοδωράκη-Ι. Καμπανέλλη]
TTITLE2=Κόκοτας Σταμάτης - Στου Όθωνα τα χρόνια [Σ. Ξαρχάκου-Ν. Γκάτσου]
TTITLE3=Μπιθικώτσης Γρηγόρης - Άσπρη μέρα και για μάς [Σ. Ξαρχάκου-Ν. Γκάτσου]
TTITLE4=Φαραντούρη Μαρία - Τ' όνειρο καπνός [Μ. Θεοδωράκη-Ν. Γκάτσου]
TTITLE5=Μπιθικώτσης Γρηγόρης - Θα σημάνουν οι καμπάνες [Μ. Θεοδωράκη-Γ. Ρίτσου
TTITLE5=]
TTITLE6=Φαραντούρη Μαρία - Όταν τελειώσει ο πόλεμος [Μ. Θεοδωράκη-Ι. Καμπανέλλ
TTITLE6=η]
TTITLE7=Μπιθικώτσης Γρηγόρης - Μάτια βουρκωμένα [Σ. Ξαρχάκου-Ν. Γκάτσου]
TTITLE8=Φαραντούρη Μαρία - Άσμα ασμάτων [Μ. Θεοδωράκη-Ι. Καμπανέλλη]
TTITLE9=Κόκοτας Σταμάτης - Με τι καρδιά τον κόσμο να αρνηθώ [Σ. Ξαρχάκου-Ν. Γκ
TTITLE9=άτσου]
TTITLE10=Ζωγράφος Γιώργος - Μικρό παιδί [Λ. Κόκοτου-Α. Βεργόπουλου]
TTITLE11=Αρλέτα - Μιά φορά θυμάμαι μ' αγαπούσες [Γ. Σπανού-Γ. Παπαστεφάνου]
TTITLE12=Μαβίλη Αλέκα - Αυτό το αγόρι [Μ. Λοΐζου-Λ. Παπαδόπουλου]
TTITLE13=Μοσχολιού Βίκυ - Ξημερώματα [Γ. Ζαμπέτα-Δ. Χριστοδούλου]
TTITLE14=Βουγιουκλάκη Αλίκη - Σήκω χόρεψε συρτάκι [Γ. Ζαμπέτα-Α. Σακελλάριου]
EXTD=
EXTT0=
EXTT1=
EXTT2=
EXTT3=
EXTT4=
EXTT5=
EXTT6=
EXTT7=
EXTT8=
EXTT9=
EXTT10=
EXTT11=
EXTT12=
EXTT13=
EXTT14=
PLAYORDER=
